<svg width="89" height="89" viewBox="0 0 89 89" fill="none" xmlns="http://www.w3.org/2000/svg">
<path d="M21.6936 63.4125C24.8457 61.0021 28.3686 59.1016 32.2623 57.7109C36.1561 56.3203 40.2353 55.625 44.4998 55.625C48.7644 55.625 52.8436 56.3203 56.7373 57.7109C60.6311 59.1016 64.154 61.0021 67.3061 63.4125C69.4693 60.8785 71.1535 58.0045 72.3587 54.7906C73.5639 51.5767 74.1665 48.1465 74.1665 44.5C74.1665 36.2799 71.2771 29.2804 65.4983 23.5016C59.7195 17.7227 52.72 14.8333 44.4998 14.8333C36.2797 14.8333 29.2802 17.7227 23.5014 23.5016C17.7226 29.2804 14.8332 36.2799 14.8332 44.5C14.8332 48.1465 15.4358 51.5767 16.641 54.7906C17.8462 58.0045 19.5304 60.8785 21.6936 63.4125ZM44.4998 48.2083C40.8533 48.2083 37.7785 46.9568 35.2754 44.4536C32.7722 41.9505 31.5207 38.8757 31.5207 35.2292C31.5207 31.5826 32.7722 28.5078 35.2754 26.0047C37.7785 23.5016 40.8533 22.25 44.4998 22.25C48.1464 22.25 51.2212 23.5016 53.7243 26.0047C56.2274 28.5078 57.479 31.5826 57.479 35.2292C57.479 38.8757 56.2274 41.9505 53.7243 44.4536C51.2212 46.9568 48.1464 48.2083 44.4998 48.2083ZM44.4998 81.5833C39.37 81.5833 34.5491 80.6099 30.0373 78.663C25.5255 76.7161 21.6009 74.074 18.2634 70.7365C14.9259 67.399 12.2837 63.4743 10.3368 58.9625C8.38994 54.4507 7.4165 49.6299 7.4165 44.5C7.4165 39.3701 8.38994 34.5493 10.3368 30.0375C12.2837 25.5257 14.9259 21.601 18.2634 18.2635C21.6009 14.926 25.5255 12.2838 30.0373 10.337C34.5491 8.39009 39.37 7.41666 44.4998 7.41666C49.6297 7.41666 54.4505 8.39009 58.9623 10.337C63.4741 12.2838 67.3988 14.926 70.7363 18.2635C74.0738 21.601 76.716 25.5257 78.6629 30.0375C80.6097 34.5493 81.5832 39.3701 81.5832 44.5C81.5832 49.6299 80.6097 54.4507 78.6629 58.9625C76.716 63.4743 74.0738 67.399 70.7363 70.7365C67.3988 74.074 63.4741 76.7161 58.9623 78.663C54.4505 80.6099 49.6297 81.5833 44.4998 81.5833Z" fill="#0A0A0A"/>
</svg>
